<svg xmlns="http://www.w3.org/2000/svg" xmlns:xlink="http://www.w3.org/1999/xlink" width="40" zoomAndPan="magnify" viewBox="0 0 30 30.000001" height="40" preserveAspectRatio="xMidYMid meet" version="1.2"><defs><clipPath id="00565ac9c7"><path d="M 1.789062 1.304688 L 27.917969 1.304688 L 27.917969 27.433594 L 1.789062 27.433594 Z M 1.789062 1.304688 "/></clipPath></defs><g id="ff2c564c60"><g clip-rule="nonzero" clip-path="url(#00565ac9c7)"><path style=" stroke:none;fill-rule:evenodd;fill:#ffffff;fill-opacity:1;" d="M 14.691406 1.304688 C 7.539062 1.304688 1.789062 7.101562 1.789062 14.316406 C 1.789062 19.671875 4.933594 24.15625 9.488281 26.234375 C 9.488281 23.792969 9.472656 24.109375 11.332031 16.175781 C 10.308594 14.113281 11.105469 10.707031 13.390625 10.707031 C 16.566406 10.707031 14.410156 15.417969 14.042969 17.269531 C 13.71875 18.691406 14.800781 19.78125 16.101562 19.78125 C 18.597656 19.78125 20.222656 16.613281 20.222656 12.894531 C 20.222656 10.050781 18.273438 7.976562 14.910156 7.976562 C 8.933594 7.976562 7.417969 14.632812 9.488281 16.722656 C 10.011719 17.511719 9.488281 17.546875 9.488281 18.578125 C 9.128906 19.671875 6.238281 18.085938 6.238281 13.988281 C 6.238281 10.269531 9.273438 5.898438 15.453125 5.898438 C 20.332031 5.898438 23.582031 9.503906 23.582031 13.332031 C 23.582031 18.472656 20.765625 22.1875 16.644531 22.1875 C 15.234375 22.1875 13.933594 21.421875 13.5 20.546875 C 12.710938 23.613281 12.554688 25.164062 11.332031 26.890625 C 12.523438 27.214844 13.71875 27.433594 15.019531 27.433594 C 22.171875 27.433594 27.917969 21.640625 27.917969 14.425781 C 27.59375 7.101562 21.847656 1.304688 14.691406 1.304688 "/></g></g></svg>