<svg xmlns="http://www.w3.org/2000/svg" xmlns:xlink="http://www.w3.org/1999/xlink" width="40" zoomAndPan="magnify" viewBox="0 0 30 30.000001" height="40" preserveAspectRatio="xMidYMid meet" version="1.2"><defs><clipPath id="3433d1b4e7"><path d="M 2.515625 1.523438 L 27.917969 1.523438 L 27.917969 26.925781 L 2.515625 26.925781 Z M 2.515625 1.523438 "/></clipPath></defs><g id="84d1de4f08"><g clip-rule="nonzero" clip-path="url(#3433d1b4e7)"><path style=" stroke:none;fill-rule:nonzero;fill:#ffffff;fill-opacity:1;" d="M 15.355469 1.523438 C 8.417969 1.523438 2.792969 7.148438 2.792969 14.085938 C 2.792969 16.347656 3.390625 18.46875 4.433594 20.300781 C 3.832031 21.886719 3.277344 23.5 2.789062 25.144531 C 2.515625 26.042969 3.398438 26.929688 4.300781 26.65625 C 5.941406 26.164062 7.558594 25.613281 9.140625 25.007812 C 10.972656 26.054688 13.09375 26.652344 15.355469 26.652344 C 22.292969 26.652344 27.917969 21.027344 27.917969 14.085938 C 27.917969 7.148438 22.292969 1.523438 15.355469 1.523438 Z M 22.671875 19.246094 C 22.667969 19.261719 22.664062 19.273438 22.660156 19.289062 C 22.445312 20.457031 21.222656 21.394531 19.027344 21.515625 C 16.886719 21.628906 13.878906 20.957031 11.1875 18.257812 C 8.484375 15.5625 7.816406 12.558594 7.925781 10.417969 C 8.046875 8.222656 8.984375 6.996094 10.15625 6.78125 C 10.167969 6.777344 10.183594 6.777344 10.195312 6.773438 C 10.714844 6.664062 11.113281 6.648438 11.40625 6.648438 C 11.894531 6.660156 12.441406 7.023438 12.679688 7.464844 C 12.820312 7.738281 13.160156 8.503906 13.371094 9.015625 C 13.582031 9.523438 13.878906 10.320312 13.96875 10.621094 C 14.109375 11.113281 13.964844 11.800781 13.605469 12.203125 C 13.378906 12.441406 13.25 12.5625 12.769531 12.898438 C 12.769531 12.898438 12.765625 12.902344 12.761719 12.902344 C 12.34375 13.1875 12.222656 13.78125 12.515625 14.292969 C 13.199219 15.546875 13.898438 16.242188 15.148438 16.929688 C 15.664062 17.21875 16.253906 17.097656 16.539062 16.679688 C 16.542969 16.679688 16.542969 16.675781 16.546875 16.671875 C 16.882812 16.195312 17.003906 16.0625 17.238281 15.839844 C 17.640625 15.476562 18.328125 15.332031 18.820312 15.472656 C 19.125 15.566406 19.917969 15.863281 20.429688 16.074219 C 20.941406 16.28125 21.707031 16.625 21.980469 16.765625 C 22.417969 17.003906 22.78125 17.546875 22.796875 18.035156 C 22.796875 18.332031 22.777344 18.726562 22.671875 19.246094 Z M 22.671875 19.246094 "/></g></g></svg>